<svg xmlns="http://www.w3.org/2000/svg" xmlns:xlink="http://www.w3.org/1999/xlink" width="150" height="16.583" viewBox="0 0 150 16.583"><defs><style>.a{fill:url(#a);}.b{fill:url(#b);}.c{fill:url(#c);}.d{fill:url(#d);}.e{fill:url(#e);}.f{fill:url(#f);}.g{fill:url(#g);}.h{fill:url(#h);}.i{fill:url(#i);}.j{fill:url(#j);}</style><radialGradient id="a" cx="1337.657" cy="40.389" r="34.176" gradientTransform="translate(-971.712 -31.414) scale(1.781 1.781)" gradientUnits="userSpaceOnUse"><stop offset="0" stop-color="#ffefc0"/><stop offset="0.33" stop-color="#dfaf10"/><stop offset="0.71" stop-color="#bd8c2b"/><stop offset="1" stop-color="#9d7c4f"/></radialGradient><radialGradient id="b" cx="342.181" cy="39.353" r="57.537" gradientTransform="translate(-11.874 -2.241) scale(1.058 1.058)" xlink:href="#a"/><radialGradient id="c" cx="3084.958" cy="46.972" r="33.514" gradientTransform="translate(-2340.312 -37.822) scale(1.816 1.816)" xlink:href="#a"/><radialGradient id="d" cx="3808.674" cy="47.017" r="33.43" gradientTransform="translate(-2904.887 -38.069) scale(1.821 1.821)" xlink:href="#a"/><radialGradient id="e" cx="839.217" cy="38.316" r="55.147" gradientTransform="translate(-55.144 -3.973) scale(1.104 1.104)" xlink:href="#a"/><radialGradient id="f" cx="376.634" cy="38.316" r="60.872" gradientTransform="translate(0 0.004)" xlink:href="#a"/><radialGradient id="g" cx="7289.898" cy="46.734" r="31.933" gradientTransform="translate(-6172.983 -41.84) scale(1.906 1.906)" xlink:href="#a"/><radialGradient id="h" cx="2109.053" cy="40.82" r="50.549" gradientTransform="translate(-327.565 -8.201) scale(1.204 1.204)" xlink:href="#a"/><radialGradient id="i" cx="-33.206" cy="-118.067" r="11.632" gradientTransform="translate(-14.594 -49.918) scale(0.657 0.657)" xlink:href="#a"/><radialGradient id="j" cx="11.07" cy="11.762" r="8.274" gradientTransform="translate(0.853 0.865) scale(0.923 0.923)" xlink:href="#a"/></defs><path class="a" d="M88.8,4.984c0,2.557,1.688,3.811,3.9,4.656,1.168.455,2.273.8,2.273,2.339a1.621,1.621,0,0,1-1.6,1.643,2.359,2.359,0,0,1-2.122-1.4L88.78,13.277A4.707,4.707,0,0,0,93.3,16.7H93.5a4.63,4.63,0,0,0,4.569-4.718A4.419,4.419,0,0,0,95.752,7.69a20.206,20.206,0,0,0-2.166-1.015c-.909-.39-1.689-1.038-1.689-1.819a1.568,1.568,0,0,1,1.451-1.582,1.5,1.5,0,0,1,1.429.909l2.793-1.34A4.2,4.2,0,0,0,93.543.157,4.489,4.489,0,0,0,88.8,4.984Z" transform="translate(-64.409 -0.114)"/><path class="b" d="M142.976.628,136.5,16.867h3.334l1.211-2.924a.172.172,0,0,1,.174-.107h5.867a.17.17,0,0,1,.173.107l1.278,2.924h3.314L145.336.628h-2.361Zm-.714,10.263c0-.043,0-.064.022-.088L144.1,6.237l.065-.086.043.043c0,.02,0,.02.022.043l1.8,4.566a.084.084,0,0,1,.022.066c0,.066-.022.086-.087.086h-3.615c-.065,0-.088-.021-.088-.064Z" transform="translate(-99.032 -0.456)"/><path class="c" d="M206.392.628V16.867h3.1V10.394a.116.116,0,0,1,.131-.13h5.715v-3.1h-5.715a.116.116,0,0,1-.131-.13V3.855a.115.115,0,0,1,.131-.128h5.715V.628h-8.942Z" transform="translate(-149.736 -0.456)"/><path class="d" d="M255.3.628V16.867h8.92v-3.1h-5.693a.116.116,0,0,1-.131-.133V10.394a.115.115,0,0,1,.131-.13h5.693v-3.1h-5.693a.115.115,0,0,1-.131-.13V3.855a.114.114,0,0,1,.131-.128h5.693V.628H255.3Z" transform="translate(-185.219 -0.456)"/><path class="e" d="M305.435,8.293a8.278,8.278,0,0,0,8.292,8.29,8.363,8.363,0,0,0,6.734-2.88V7.576h-7.08v2.99h3.854c.065,0,.087.023.087.065v1.863a5.116,5.116,0,0,1-3.356,1.015,5.284,5.284,0,0,1-5.435-5.215,5.211,5.211,0,0,1,5.2-5.2,6.9,6.9,0,0,1,3.81,1.386l1.906-2.468A9.3,9.3,0,0,0,313.727,0a8.279,8.279,0,0,0-8.292,8.293Z" transform="translate(-221.591)"/><path class="f" d="M372.818,8.293A8.292,8.292,0,1,0,381.11,0,8.278,8.278,0,0,0,372.818,8.293Zm3.1,0a5.2,5.2,0,1,1,5.2,5.195,5.212,5.212,0,0,1-5.2-5.195Z" transform="translate(-270.476 0)"/><path class="g" d="M449.965.553v16.26H458.5v-3.1h-5.175a.23.23,0,0,1-.26-.259V.553h-3.1Z" transform="translate(-326.446 -0.401)"/><path class="h" d="M497.3.628V16.867h5.326a8.173,8.173,0,0,0,8.162-8.118A8.174,8.174,0,0,0,502.625.628H497.3Zm3.1,13.011V3.855a.114.114,0,0,1,.131-.128h2.229a4.738,4.738,0,0,1,4.936,5.023,4.843,4.843,0,0,1-5.066,5.022h-2.1A.115.115,0,0,1,500.395,13.639Z" transform="translate(-360.786 -0.456)"/><path class="i" d="M20.534,27.278a4.786,4.786,0,0,1,0,1.6h1.186a6.61,6.61,0,0,1-10.783,4.281l-1.291.95a8.16,8.16,0,0,0,13.673-6.016q0-.413-.041-.814h-.56v0Z" transform="translate(-6.996 -19.789)"/><path class="j" d="M0,8.686q0,.383.035.757H3.226l-.01.027H3.4a4.827,4.827,0,0,0,9.522-1.6H11.693v0H7.667v1.6h3.585a3.186,3.186,0,1,1-1.245-3.353l1.375-1.048A4.827,4.827,0,0,0,3.4,7.869H1.6a6.61,6.61,0,0,1,11.22-3.894l1.229-.937A8.158,8.158,0,0,0,0,8.686Z" transform="translate(0 -0.382)"/></svg>